<?xml version="1.0" encoding="UTF-8"?><svg id="Layer_1" xmlns="http://www.w3.org/2000/svg" viewBox="0 0 489.71 203.28"><defs><style>.cls-1{fill:#002fa7;}.cls-2{fill:#ff0d70;}</style></defs><path class="cls-1" d="m408.09,152.01c38.87,0,70.39-31.51,70.39-70.39s-31.51-70.39-70.39-70.39-70.39,31.51-70.39,70.39,31.51,70.39,70.39,70.39Zm-18.92-46.84c10.17,0,16.85,10.31,23.97,10.31,4.07,0,7.7-3.05,7.7-9.88,0-6.1-1.74-15.98.15-25.85-5.96,8.28-13.22,13.8-20.19,13.8-6.54,0-12.78-4.79-12.78-13.65,0-4.5,1.74-10.75,6.83-23.39-11.33,3.78-19.9-7.12-14.53-19.46h1.45c1.02,7.26,14.23,7.26,22.51-.44l1.89,1.16c-8.28,21.79-11.18,28.32-11.18,33.7s3.05,7.55,9.15,7.55c14.53,0,22.95-13.8,22.95-24.98,0-6.54-3.05-12.64-10.02-13.94v-1.45h28.32v1.45c-7.26,3.34-14.38,17.14-18.01,31.66-3.63,15.69-1.31,24.98-1.31,33.84,0,12.93-8.57,21.5-19.32,21.5s-14.82-7.41-22.37-7.41c-3.34,0-5.67,1.74-7.26,5.52h-1.45c-4.07-13.51,5.66-20.04,13.51-20.04Z"/><path class="cls-2" d="m326.5,0h0s-163.25,0-163.25,0h0S0,0,0,0v163.25h489.71V0h-163.21Zm-168.77,157.74H5.52V5.52h152.22v152.22Zm140.41-35.79h-29.1v-34.02h4.64c3.23,0,4.36-1.55,4.36-6.05,0-4.92-.98-6.33-4.22-6.33h-13.78c-3.23,0-4.22,1.41-4.22,6.33,0,4.5.98,6.05,4.22,6.05h4.64v34.02h-32.19v-34.02h4.64c2.95,0,4.36-1.55,4.36-6.05,0-4.92-.98-6.33-4.22-6.33h-13.78c-2.95,0-4.22,1.41-4.22,6.33,0,4.5,1.27,6.05,4.22,6.05h4.64v34.02h-33.18v-34.02h7.17c3.23,0,4.22-1.55,4.22-6.05,0-4.92-.98-6.33-4.22-6.33h-7.31v-36.69h23.34v18.42c0,1.55.14,3.23,1.83,3.23,3.8,0,.28-9.98,3.8-16.59,2.25-5.2,6.89-5.62,13.22-5.62,11.25,0,17.71,1.27,18.42,19.4,0,1.83.7,2.81,1.97,2.81,3.51,0,.42-9.98,3.8-16.59,2.25-5.2,6.89-5.62,13.22-5.62,10.54,0,17.01,1.27,17.01,21.09v22.49c0,4.36,0,6.05,4.36,6.05h2.39v34.02Zm186.05,35.79h-152.22V5.52h152.22v152.22Z"/><path class="cls-1" d="m107.16,131.3h9.3v9.3H42.03v-9.3h-9.3v-9.3h-9.3V47.56h9.3v-9.3h9.3v74.43h9.3v9.3h9.3v9.3h46.52Zm9.3-37.22v-46.52h-9.3v-9.3h-9.3v-9.3h-46.52v9.3h-9.3v-9.3h9.3v-9.3h65.13v9.3h9.3v9.3h9.3v46.52h-9.3v9.3h-9.3Zm-18.61,18.61h-37.22v-9.3h-9.3v-18.61h9.3v-9.3h9.3v-9.3h18.61v-9.3h-27.91v-9.3h9.3v-9.3h18.61v9.3h9.3v9.3h9.3v37.22h9.3v9.3h-9.3v9.3h-9.3Zm-46.52-46.52v-9.3h9.3v9.3h-9.3Zm27.91,37.22h9.3v-27.91h-18.61v27.91h9.3Zm37.22,27.91v-9.3h9.3v9.3h-9.3Zm9.3-9.3v-9.3h9.3v9.3h-9.3Z"/><path class="cls-1" d="m63.21,184.03h6.72c6.58,0,10.04,3.78,10.04,9.44s-3.46,9.44-10.04,9.44h-6.72v-18.87Zm6.72,16.16c4.82,0,7.07-2.65,7.07-6.72s-2.25-6.72-7.07-6.72h-3.78v13.45h3.78Z"/><path class="cls-1" d="m93.86,184.03h13.88v2.71h-10.94v5.19h9.26v2.71h-9.26v5.54h10.94v2.71h-13.88v-18.87Z"/><path class="cls-1" d="m120.99,197.51h2.91c.06,1.85,1.47,3.06,4.04,3.06s4.1-1.21,4.1-3.06c0-1.99-2.02-2.31-4.3-2.71-2.94-.52-6.32-1.1-6.32-5.34,0-3.43,2.6-5.8,6.55-5.8s6.46,2.25,6.58,5.63h-2.8c-.09-1.67-1.38-2.91-3.72-2.91s-3.78,1.27-3.78,3c0,1.99,2.05,2.31,4.33,2.71,2.97.52,6.35,1.1,6.35,5.34,0,3.61-2.77,5.86-6.98,5.86s-6.87-2.19-6.95-5.77Z"/><path class="cls-1" d="m148.9,184.03h2.94v18.87h-2.94v-18.87Z"/><path class="cls-1" d="m165.78,193.47c0-5.66,4.16-9.81,10.04-9.81,4.59,0,8.11,2.51,9.46,6.32h-3.26c-1.1-2.22-3.32-3.61-6.2-3.61-4.18,0-7.07,3-7.07,7.1s2.89,7.1,7.07,7.1c3.43,0,5.97-1.73,6.87-4.88h-8.02v-2.71h11.17v1.44c-.43,5.17-4.47,8.86-10.01,8.86-5.89,0-10.04-4.15-10.04-9.81Z"/><path class="cls-1" d="m199.11,191.48c0-4.79,2.86-7.82,7.96-7.82s7.99,3.03,7.99,7.82v11.43h-2.94v-11.43c0-3.17-1.73-5.11-5.05-5.11s-5.02,1.93-5.02,5.11v11.43h-2.94v-11.43Z"/><path class="cls-1" d="m247.08,197.56c0-2.34,1.24-3.92,3.35-4.65v-.06c-1.7-.69-2.65-2.11-2.65-4.13,0-3.06,2.39-5.08,6-5.08s5.77,1.82,5.97,5.05h-2.66c-.17-1.47-1.3-2.54-3.29-2.54-2.11,0-3.32,1.27-3.32,2.83,0,1.73,1.21,2.74,3.46,2.74h7.67v2.34h-3.29c1.33.69,2.11,1.93,2.11,3.69,0,3.35-2.68,5.51-6.67,5.51s-6.69-2.22-6.69-5.71Zm10.65-.2c0-2.05-1.44-3.29-3.78-3.29h-.35c-2.34,0-3.78,1.21-3.78,3.29s1.33,3.43,3.95,3.43,3.95-1.41,3.95-3.43Z"/><path class="cls-1" d="m294.06,184.03h7.91c4.76,0,6.87,2.63,6.87,6.2s-2.11,6.23-6.87,6.23h-4.96v6.43h-2.94v-18.87Zm7.96,9.72c2.83,0,3.84-1.5,3.84-3.52s-1.01-3.49-3.84-3.49h-5.02v7.01h5.02Z"/><path class="cls-1" d="m322.34,184.03h2.94v7.93h10.53v-7.93h2.94v18.87h-2.94v-8.22h-10.53v8.22h-2.94v-18.87Z"/><path class="cls-1" d="m352.64,193.47c0-5.66,4.16-9.81,10.04-9.81s10.04,4.16,10.04,9.81-4.16,9.81-10.04,9.81-10.04-4.15-10.04-9.81Zm17.11,0c0-4.1-2.89-7.1-7.07-7.1s-7.07,3-7.07,7.1,2.88,7.1,7.07,7.1,7.07-3,7.07-7.1Z"/><path class="cls-1" d="m390.19,186.74h-5.97v-2.71h14.92v2.71h-6v16.16h-2.94v-16.16Z"/><path class="cls-1" d="m410.62,193.47c0-5.66,4.15-9.81,10.04-9.81s10.04,4.16,10.04,9.81-4.16,9.81-10.04,9.81-10.04-4.15-10.04-9.81Zm17.11,0c0-4.1-2.89-7.1-7.07-7.1s-7.07,3-7.07,7.1,2.89,7.1,7.07,7.1,7.07-3,7.07-7.1Z"/></svg>