<?xml version="1.0" encoding="UTF-8"?><svg id="Layer_1" xmlns="http://www.w3.org/2000/svg" viewBox="0 0 489.71 163.25"><path d="m408.09,152.01c38.87,0,70.39-31.51,70.39-70.39s-31.51-70.39-70.39-70.39-70.39,31.51-70.39,70.39,31.51,70.39,70.39,70.39Zm-18.92-46.84c10.17,0,16.85,10.31,23.97,10.31,4.07,0,7.7-3.05,7.7-9.88,0-6.1-1.74-15.98.15-25.85-5.96,8.28-13.22,13.8-20.19,13.8-6.54,0-12.78-4.79-12.78-13.65,0-4.5,1.74-10.75,6.83-23.39-11.33,3.78-19.9-7.12-14.53-19.46h1.45c1.02,7.26,14.23,7.26,22.51-.44l1.89,1.16c-8.28,21.79-11.18,28.32-11.18,33.7s3.05,7.55,9.15,7.55c14.53,0,22.95-13.8,22.95-24.98,0-6.54-3.05-12.64-10.02-13.94v-1.45h28.32v1.45c-7.26,3.34-14.38,17.14-18.01,31.66-3.63,15.69-1.31,24.98-1.31,33.84,0,12.93-8.57,21.5-19.32,21.5s-14.82-7.41-22.37-7.41c-3.34,0-5.67,1.74-7.26,5.52h-1.45c-4.07-13.51,5.66-20.04,13.51-20.04Z"/><path d="m326.5,0h0s-163.25,0-163.25,0h0S0,0,0,0v163.25h489.71V0h-163.21Zm-168.77,157.74H5.52V5.52h152.22v152.22Zm140.41-35.79h-29.1v-34.02h4.64c3.23,0,4.36-1.55,4.36-6.05,0-4.92-.98-6.33-4.22-6.33h-13.78c-3.23,0-4.22,1.41-4.22,6.33,0,4.5.98,6.05,4.22,6.05h4.64v34.02h-32.19v-34.02h4.64c2.95,0,4.36-1.55,4.36-6.05,0-4.92-.98-6.33-4.22-6.33h-13.78c-2.95,0-4.22,1.41-4.22,6.33,0,4.5,1.27,6.05,4.22,6.05h4.64v34.02h-33.18v-34.02h7.17c3.23,0,4.22-1.55,4.22-6.05,0-4.92-.98-6.33-4.22-6.33h-7.31v-36.69h23.34v18.42c0,1.55.14,3.23,1.83,3.23,3.8,0,.28-9.98,3.8-16.59,2.25-5.2,6.89-5.62,13.22-5.62,11.25,0,17.71,1.27,18.42,19.4,0,1.83.7,2.81,1.97,2.81,3.51,0,.42-9.98,3.8-16.59,2.25-5.2,6.89-5.62,13.22-5.62,10.54,0,17.01,1.27,17.01,21.09v22.49c0,4.36,0,6.05,4.36,6.05h2.39v34.02Zm186.05,35.79h-152.22V5.52h152.22v152.22Z"/><path d="m107.16,131.3h9.3v9.3H42.03v-9.3h-9.3v-9.3h-9.3V47.56h9.3v-9.3h9.3v74.43h9.3v9.3h9.3v9.3h46.52Zm9.3-37.22v-46.52h-9.3v-9.3h-9.3v-9.3h-46.52v9.3h-9.3v-9.3h9.3v-9.3h65.13v9.3h9.3v9.3h9.3v46.52h-9.3v9.3h-9.3Zm-18.61,18.61h-37.22v-9.3h-9.3v-18.61h9.3v-9.3h9.3v-9.3h18.61v-9.3h-27.91v-9.3h9.3v-9.3h18.61v9.3h9.3v9.3h9.3v37.22h9.3v9.3h-9.3v9.3h-9.3Zm-46.52-46.52v-9.3h9.3v9.3h-9.3Zm27.91,37.22h9.3v-27.91h-18.61v27.91h9.3Zm37.22,27.91v-9.3h9.3v9.3h-9.3Zm9.3-9.3v-9.3h9.3v9.3h-9.3Z"/></svg>